GIL06_fast3_RRA_states
nRows=8
nColumns=47

# SIMM Motion File Header:
name GIL06_fast3_RRA_states
datacolumns 47
datarows 8
otherdata 1
range 0.12667000000000000000 0.12667127000000000000
endheader
time	pelvis_tx	pelvis_ty	pelvis_tz	pelvis_tilt	pelvis_list	pelvis_rotation	hip_flexion_r	hip_adduction_r	hip_rotation_r	knee_angle_r	ankle_angle_r	subtalar_angle_r	mtp_angle_r	hip_flexion_l	hip_adduction_l	hip_rotation_l	knee_angle_l	ankle_angle_l	subtalar_angle_l	mtp_angle_l	lumbar_extension	lumbar_bending	lumbar_rotation	pelvis_tx_u	pelvis_ty_u	pelvis_tz_u	pelvis_tilt_u	pelvis_list_u	pelvis_rotation_u	hip_flexion_r_u	hip_adduction_r_u	hip_rotation_r_u	knee_angle_r_u	ankle_angle_r_u	subtalar_angle_r_u	mtp_angle_r_u	hip_flexion_l_u	hip_adduction_l_u	hip_rotation_l_u	knee_angle_l_u	ankle_angle_l_u	subtalar_angle_l_u	mtp_angle_l_u	lumbar_extension_u	lumbar_bending_u	lumbar_rotation_u
      0.12667000000000000000	      0.04594855946274974100	      0.81997171615513265000	     -0.26227578363321424000	     -3.38568456614122090000	      5.22609896993797740000	     -5.90630422602993570000	     -4.62380057646981600000	     -9.50616085613082970000	     -2.53841426749331280000	    -46.94953458719419400000	    -30.04157425864120900000	      0.00000000000000000000	      0.00000000000000000000	     26.14618044496009800000	      5.82395636672873080000	      1.99157279984622470000	    -19.57989336450458100000	     -3.45654239731183170000	      0.00000000000000000000	      0.00000000000000000000	      7.33703870702927400000	     -7.98177990734613820000	     17.21135144862081700000	      1.40401062568869460000	      0.21707734638372783000	     -0.26687530925403724000	     25.91417473440640900000	     18.50433843727735800000	     39.80742869203788100000	    170.70985071966260000000	    -60.16125580084921900000	    -20.85110523751600600000	   -359.59709570477548000000	    131.84226982983384000000	      0.00000000000000000000	      0.00000000000000000000	   -149.47900425627776000000	     72.66032477887101500000	     53.04486709701207300000	     44.88907492422067900000	     53.41471163260551700000	      0.00000000000000000000	      0.00000000000000000000	    -46.50084026066109300000	    -13.36132657243449500000	    -82.54561424885140800000
      0.12667001000000000000	      0.04594857350285584700	      0.81997171832590610000	     -0.26227578630196724000	     -3.38568430699950040000	      5.22609915498135890000	     -5.90630382795564830000	     -4.62379886937126020000	     -9.50616145774335840000	     -2.53841447600434390000	    -46.94953818316511700000	    -30.04157294021839800000	      0.00000000000000000000	      0.00000000000000000000	     26.14617895017007100000	      5.82395709333195730000	      1.99157333029486460000	    -19.57989291561380800000	     -3.45654186316478600000	     -0.00000000000000000000	     -0.00000000000000000000	      7.33703824202090260000	     -7.98178004095941150000	     17.21135062316471200000	      1.40401059596373680000	      0.21707733716856376000	     -0.26687529215256595000	     25.91416935646198300000	     18.50433788551118000000	     39.80742869778833900000	    170.70986039159865000000	    -60.16125020453419800000	    -20.85110104395366200000	   -359.59709004721589000000	    131.84229251375106000000	      0.00000000000000000002	     -0.00000000000000000001	   -149.47900051070596000000	     72.66032045975539700000	     53.04486088297436900000	     44.88907921640836200000	     53.41469754709651600000	     -0.00000000000000000016	     -0.00000000000000000015	    -46.50083410916620600000	    -13.36132798694027500000	    -82.54560644041825400000
      0.12667002999999999000	      0.04594860158306717000	      0.81997172266745266000	     -0.26227579163947273000	     -3.38568378871622100000	      5.22609952506810500000	     -5.90630303180707370000	     -4.62379545517385890000	     -9.50616266096825240000	     -2.53841489302628090000	    -46.94954537510680800000	    -30.04157030337209400000	      0.00000000000000000000	     -0.00000000000000000000	     26.14617596059013800000	      5.82395854653828060000	      1.99157439119195790000	    -19.57989201783214000000	     -3.45654079487111690000	     -0.00000000000000000000	     -0.00000000000000000000	      7.33703731200434370000	     -7.98178030818599990000	     17.21134897225274000000	      1.40401053651385090000	      0.21707731873826955000	     -0.26687525794961625000	     25.91415860059690200000	     18.50433678197865800000	     39.80742870928345700000	    170.70987973543612000000	    -60.16123901190482600000	    -20.85109265682381600000	   -359.59707873207554000000	    131.84233788158141000000	      0.00000000000000000002	     -0.00000000000000000004	   -149.47899301960516000000	     72.66031182152914900000	     53.04484845490611600000	     44.88908780080466700000	     53.41466937643320300000	     -0.00000000000000000100	      0.00000000000000000089	    -46.50082180620039200000	    -13.36133081595369600000	    -82.54559082354767000000
      0.12667007000000000000	      0.04594865774348625600	      0.81997173135054469000	     -0.26227580231448167000	     -3.38568275215030750000	      5.22610026524153250000	     -5.90630143950992540000	     -4.62378862677789650000	     -9.50616506741736520000	     -2.53841572706965170000	    -46.94955975898950100000	    -30.04156502967676400000	      0.00000000000000000000	     -0.00000000000000000000	     26.14616998143071700000	      5.82396145295040760000	      1.99157651298539910000	    -19.57989022226828600000	     -3.45653865828546850000	     -0.00000000000000000000	      0.00000000000000000000	      7.33703545197196230000	     -7.98178084263934550000	     17.21134567042973300000	      1.40401041761419810000	      0.21707728187781680000	     -0.26687518954368816000	     25.91413708896183000000	     18.50433457491294200000	     39.80742873225045000000	    170.70991842297263000000	    -60.16121662664871600000	    -20.85107588254349400000	   -359.59705610171096000000	    131.84242861722592000000	     -0.00000000000000000005	     -0.00000000000000000021	   -149.47897803757456000000	     72.66029454509677500000	     53.04482359879823200000	     44.88910496968105700000	     53.41461303652532400000	     -0.00000000000000000094	     -0.00000000000000000155	    -46.50079720036455200000	    -13.36133647398798800000	    -82.54555958978956200000
      0.12667015000000001000	      0.04594877006431015400	      0.81997174871672429000	     -0.26227582366449137000	     -3.38568067902106100000	      5.22610174558812180000	     -5.90629825491562420000	     -4.62377496998132730000	     -9.50616988031290510000	     -2.53841739515438030000	    -46.94958852675218000000	    -30.04155448227521700000	      0.00000000000000000000	     -0.00000000000000000000	     26.14615802311367400000	      5.82396726577258940000	      1.99158075656929840000	    -19.57988663113851400000	     -3.45653438512093250000	     -0.00000000000000000000	     -0.00000000000000000000	      7.33703173191015430000	     -7.98178191154671610000	     17.21133906678746700000	      1.40401017981536860000	      0.21707720815745396000	     -0.26687505273171724000	     25.91409406607204200000	     18.50433016077884600000	     39.80742877809150600000	    170.70999579749193000000	    -60.16117185614700000000	    -20.85104233390029500000	   -359.59701084064568000000	    131.84261008845013000000	      0.00000000000000000010	     -0.00000000000000000042	   -149.47894807419772000000	     72.66025999231243300000	     53.04477388669693000000	     44.88913930776890700000	     53.41450036238460100000	      0.00000000000000000009	     -0.00000000000000000025	    -46.50074798907599700000	    -13.36134779008635900000	    -82.54549712220539000000
      0.12667031000000001000	      0.04594899470590087900	      0.81997178344906585000	     -0.26227586636447792000	     -3.38567653277289390000	      5.22610470628024170000	     -5.90629188572701210000	     -4.62374765636962070000	     -9.50617950609323790000	     -2.53842073131578600000	    -46.94964606226667300000	    -30.04153338742856900000	      0.00000000000000000000	     -0.00000000000000000000	     26.14613410648677700000	      5.82397889140865920000	      1.99158924372516650000	    -19.57987944887073100000	     -3.45652583881890110000	      0.00000000000000000000	     -0.00000000000000000000	      7.33702429179835040000	     -7.98178404936417340000	     17.21132585951792000000	      1.40400970421961360000	      0.21707706071889901000	     -0.26687477910731666000	     25.91400802181388500000	     18.50432133249998800000	     39.80742886940184600000	    170.71015054431564000000	    -60.16108231518553900000	    -20.85097523628370600000	   -359.59692031717088000000	    131.84297303063937000000	      0.00000000000000000011	     -0.00000000000000000087	   -149.47888815018135000000	     72.66019088706541100000	     53.04467446295223700000	     44.88920798528489800000	     53.41427503680326800000	      0.00000000000000000557	     -0.00000000000000001361	    -46.50064956803147000000	    -13.36137042240225100000	    -82.54537218676543400000
      0.12667063000000001000	      0.04594944398885404000	      0.81997185291367813000	     -0.26227595176431967000	     -3.38566824031786060000	      5.22611062766024310000	     -5.90627914734974450000	     -4.62369302907192830000	     -9.50619875761092460000	     -2.53842740360639010000	    -46.94976113325220300000	    -30.04149119756105800000	      0.00000000000000000000	     -0.00000000000000000000	     26.14608627326174100000	      5.82400214264762980000	      1.99160621798917910000	    -19.57986508430219500000	     -3.45650874632298200000	      0.00000000000000000000	     -0.00000000000000000000	      7.33700941162198370000	     -7.98178832500995040000	     17.21129944503880100000	      1.40400875303571950000	      0.21707676585047198000	     -0.26687423185668030000	     25.91383593938326900000	     18.50430367589959600000	     39.80742905053546100000	    170.71046002910350000000	    -60.16090323343056000000	    -20.85084103972975800000	   -359.59673926484419000000	    131.84369891398106000000	     -0.00000000000000000029	     -0.00000000000000000131	   -149.47876831309785000000	     72.66005267785799000000	     53.04447561729452300000	     44.88934534567810200000	     53.41382447644128500000	     -0.00000000000000001056	     -0.00000000000000000810	    -46.50045273207270200000	    -13.36141568751060800000	    -82.54512231479886000000
      0.12667127000000000000	      0.04595034255384723000	      0.81997199184261960000	     -0.26227612256347782000	     -3.38565165557298630000	      5.22612247040329510000	     -5.90625367059503770000	     -4.62358377417944770000	     -9.50623726047438390000	     -2.53844074805876830000	    -46.94999127504945600000	    -30.04140681712918600000	     -0.00000000000000000000	     -0.00000000000000000000	     26.14599060692670600000	      5.82404864499289050000	      1.99164016632631480000	    -19.57983635503325800000	     -3.45647456176358550000	     -0.00000000000000000000	     -0.00000000000000000000	      7.33697965145820420000	     -7.98179687634496030000	     17.21124661632043700000	      1.40400685069839510000	      0.21707617614834940000	     -0.26687313734806695000	     25.91349179886480100000	     18.50426836252809400000	     39.80742940685440300000	    170.71107896324091000000	    -60.16054507059226400000	    -20.85057264133883600000	   -359.59637713868295000000	    131.84515067651739000000	     -0.00000000000000000074	     -0.00000000000000000430	   -149.47852868272804000000	     72.65977626458958100000	     53.04407793330612000000	     44.88962008790953500000	     53.41292371892193100000	     -0.00000000000000001124	     -0.00000000000000004501	    -46.50005908467626600000	    -13.36150621963357600000	    -82.54462256651923700000
